<svg width="64" height="64" viewBox="0 0 64 64" fill="none" xmlns="http://www.w3.org/2000/svg">
<path d="M61 30.3H3C2 30.3 1.2 31.1 1.2 32.1C1.2 33.1 2 33.8 3 33.8H61C62 33.8 62.8 33 62.8 32C62.8 31 62 30.3 61 30.3Z" fill="#61D2B4"/>
<path d="M61 47.9H3C2 47.9 1.2 48.7 1.2 49.7C1.2 50.7 2 51.4 3 51.4H61C62 51.4 62.8 50.6 62.8 49.6C62.8 48.6 62 47.9 61 47.9Z" fill="#61D2B4"/>
<path d="M3 16.1H61C62 16.1 62.8 15.3 62.8 14.3C62.8 13.3 62 12.6 61 12.6H3C2 12.6 1.2 13.4 1.2 14.4C1.2 15.4 2 16.1 3 16.1Z" fill="#61D2B4"/>
</svg>
